<svg xmlns="http://www.w3.org/2000/svg" xmlns:xlink="http://www.w3.org/1999/xlink" version="1.1" width="30" height="30" viewBox="0 0 256 256" xml:space="preserve">
<g style="stroke: none; stroke-width: 0; stroke-dasharray: none; stroke-linecap: butt; stroke-linejoin: miter; stroke-miterlimit: 10; fill: none; fill-rule: nonzero; opacity: 1;" transform="translate(1.4065934065934016 1.4065934065934016) scale(2.81 2.81)">
	<path d="M 45 61.4 c 0 0 -1.034 0 -2.608 -0.02 c -4.438 -0.054 -12.27 -0.245 -14.841 -0.935 c -2.237 -0.598 -3.999 -2.359 -4.597 -4.598 C 22.011 52.331 22 45.298 22 45 s 0.011 -7.331 0.954 -10.849 c 0.599 -2.238 2.36 -4 4.598 -4.598 C 31.069 28.611 44.433 28.6 45 28.6 s 13.932 0.011 17.449 0.954 c 2.237 0.598 3.998 2.359 4.597 4.597 l 0 0 C 67.989 37.668 68 44.702 68 45 s -0.011 7.331 -0.954 10.849 c -0.598 2.237 -2.359 4 -4.598 4.598 c -2.435 0.653 -9.391 0.868 -14.798 0.935 L 45 61.4 z M 45 30.6 c -0.136 0 -13.666 0.01 -16.932 0.885 c -1.549 0.414 -2.769 1.633 -3.183 3.183 C 24.01 37.935 24 44.93 24 45 s 0.011 7.067 0.885 10.331 c 0.415 1.55 1.634 2.77 3.183 3.184 c 1.725 0.462 6.955 0.777 14.349 0.866 c 1.556 0.02 2.58 0.02 2.583 0.02 l 2.626 -0.02 c 7.373 -0.09 12.587 -0.405 14.306 -0.866 c 1.549 -0.414 2.769 -1.634 3.183 -3.183 C 65.99 52.065 66 45.07 66 45 s -0.011 -7.068 -0.886 -10.332 v 0 c -0.414 -1.549 -1.634 -2.769 -3.182 -3.182 C 58.666 30.61 45.136 30.6 45 30.6 z" style="stroke: none; stroke-width: 1; stroke-dasharray: none; stroke-linecap: butt; stroke-linejoin: miter; stroke-miterlimit: 10; fill: rgb(148,78,99); fill-rule: nonzero; opacity: 1;" transform=" matrix(1 0 0 1 0 0) " stroke-linecap="round"/>
	<path d="M 40.6 52.6 c -0.173 0 -0.345 -0.045 -0.5 -0.134 c -0.31 -0.179 -0.5 -0.509 -0.5 -0.866 V 38.4 c 0 -0.357 0.19 -0.688 0.5 -0.866 s 0.69 -0.179 1 0 l 11.43 6.6 c 0.31 0.179 0.5 0.509 0.5 0.866 s -0.19 0.688 -0.5 0.866 l -11.43 6.6 C 40.945 52.555 40.773 52.6 40.6 52.6 z M 41.6 40.132 v 9.735 L 50.03 45 L 41.6 40.132 z" style="stroke: none; stroke-width: 1; stroke-dasharray: none; stroke-linecap: butt; stroke-linejoin: miter; stroke-miterlimit: 10; fill: rgb(148,78,99); fill-rule: nonzero; opacity: 1;" transform=" matrix(1 0 0 1 0 0) " stroke-linecap="round"/>
	<path d="M 45 90 C 20.187 90 0 69.813 0 45 C 0 20.187 20.187 0 45 0 c 24.813 0 45 20.187 45 45 C 90 69.813 69.813 90 45 90 z M 45 2 C 21.29 2 2 21.29 2 45 c 0 23.71 19.29 43 43 43 c 23.71 0 43 -19.29 43 -43 C 88 21.29 68.71 2 45 2 z" style="stroke: none; stroke-width: 1; stroke-dasharray: none; stroke-linecap: butt; stroke-linejoin: miter; stroke-miterlimit: 10; fill: rgb(148,78,99); fill-rule: nonzero; opacity: 1;" transform=" matrix(1 0 0 1 0 0) " stroke-linecap="round"/>
</g>
</svg>